<?xml version="1.0" encoding="utf-8"?>
<!-- Generator: Adobe Illustrator 24.2.1, SVG Export Plug-In . SVG Version: 6.00 Build 0)  -->
<svg version="1.1" id="Layer_1" xmlns="http://www.w3.org/2000/svg" xmlns:xlink="http://www.w3.org/1999/xlink" x="0px"
	y="0px" viewBox="0 0 1551.9 669.1" style="enable-background:new 0 0 1551.9 669.1;" xml:space="preserve">
	<style type="text/css">
		.st0 {
			fill: #dd472e;
		}

		.st1 {
			fill: #123992;
		}
	</style>
	<path class="st0"
		d="M147.3,646.2c-32.1,0-59.8-11.3-82.4-32.9c-22.5-21.7-33.8-48.6-33.8-79.8s11.3-58.1,33.8-79.8
	s50.3-32.9,82.4-32.9s59.8,11.3,82.4,32.9c22.5,21.7,33.8,48.6,33.8,79.8s-11.3,58.1-33.8,79.8S179.4,646.2,147.3,646.2z" />
	<g>
		<g>
			<g>
				<g>
					<path class="st1" d="M256.5,225.7v220.2c2.6,2.6,5.2,4.3,7.8,6.9c22.5,21.7,33.8,48.6,33.8,79.8s-11.3,58.1-33.8,79.8
					c-1.7,1.7-3.5,2.6-5.2,4.3h117v-391H256.5z M385.7,85.2c-4.3-9.5-9.5-17.3-15.6-24.3c-6.9-6.9-14.7-12.1-24.3-15.6
					c-9.5-4.3-19.1-6.1-29.5-6.1s-20.8,1.7-29.5,6.1s-17.3,9.5-23.4,15.6c-6.9,6.9-12.1,14.7-15.6,24.3c-4.3,9.5-6.1,19.1-6.1,29.5
					s1.7,20.8,6.1,29.5c4.3,8.7,9.5,17.3,15.6,23.4c6.9,6.9,14.7,12.1,23.4,15.6c8.7,4.3,19.1,6.1,29.5,6.1s19.9-1.7,29.5-6.1
					s17.3-9.5,24.3-15.6c6.9-6.9,12.1-14.7,15.6-23.4c4.3-8.7,6.1-19.1,6.1-29.5S389.2,93.9,385.7,85.2z" />
					<path class="st1" d="M781.9,260.3c-24.3-31.2-60.7-46.8-109.2-46.8c-53.8,0-93.6,20.8-119.6,62.4h-7.8v-49.4H432.5v391.9h119.6
					V438.1c0-33.8,6.9-60.7,20.8-81.5c13.9-20.8,34.7-31.2,61.6-31.2c21.7,0,37.3,6.9,46.8,20.8c10.4,13.9,15.6,31.2,15.6,52v220.2
					h119.6V384.3C817.5,333.2,805.3,291.5,781.9,260.3z" />
					<path class="st1" d="M1019.5,203.1c0-15.6,3.5-27.7,11.3-36.4c7.8-8.7,19.1-13.9,32.9-13.9c7.8,0,15.6,0.9,21.7,1.7
					c6.1,1.7,12.1,3.5,17.3,6.1L1137.4,54c-11.3-4.3-24.3-7.8-38.1-11.3c-13.9-2.6-28.6-4.3-43.3-4.3c-46.8,0-85,13.9-113.6,40.7
					C913.8,106,899,145,899,197v28.6h-68.5v100.6H899v291.3h119.6V326.2h95.4V225.7h-95.4v-22.5h0.9V203.1z" />
					<path class="st1"
						d="M1505.9,337.5c-10.4-26-25.1-47.7-44.2-65.9s-41.6-32.9-66.8-43.4c-26-10.4-53.8-15.6-84.1-15.6
					s-59,5.2-84.1,15.6c-26,10.4-48.6,25.1-66.8,43.4c-19.1,18.2-33.8,40.7-44.2,65.9c-10.4,26-15.6,53.8-15.6,84.1
					s5.2,58.1,15.6,84.1c10.4,26,25.1,47.7,44.2,65.9s41.6,32.9,66.8,43.4c26,10.4,53.8,15.6,84.1,15.6s58.1-5.2,84.1-15.6
					s48.6-25.1,66.8-43.4c18.2-18.2,33.8-40.7,44.2-65.9c10.4-25.1,15.6-53.8,15.6-84.1C1521.5,391.3,1516.3,363.5,1505.9,337.5z
					 M1394,462.3c-4.3,12.1-11.3,22.5-19.9,30.3c-8.7,8.7-18.2,14.7-29.5,19.1c-11.3,4.3-22.5,6.9-34.7,6.9s-24.3-2.6-34.7-6.9
					c-10.4-4.3-20.8-11.3-29.5-19.1c-8.7-8.7-15.6-18.2-19.9-30.3c-5.2-12.1-6.9-25.1-6.9-39.9c0-14.7,2.6-28.6,6.9-39.9
					c4.3-12.1,11.3-21.7,19.9-30.3c8.7-8.7,18.2-14.7,29.5-19.9c11.3-4.3,22.5-6.9,34.7-6.9s24.3,2.6,34.7,6.9
					c11.3,4.3,20.8,11.3,29.5,19.9c8.7,8.7,15.6,18.2,19.9,30.3c4.3,11.3,6.9,25.1,6.9,39.9C1401,436.3,1399.2,450.2,1394,462.3z" />
				</g>
			</g>
		</g>
	</g>
</svg>